<svg xmlns="http://www.w3.org/2000/svg" viewBox="0 0 600 350" width="600" height="350">
  <!-- Fondo -->
  <rect width="600" height="350" fill="#fafafa"/>
  
  <!-- Título -->
  <text x="300" y="30" font-size="16" font-weight="bold" text-anchor="middle" fill="#333">
    Descomposición del Momento Angular (4 términos)
  </text>
  
  <!-- Contenedor principal -->
  <g transform="translate(50, 80)">
    <rect x="0" y="0" width="500" height="220" fill="#f5f5f5" stroke="#333" stroke-width="1" rx="10"/>
    
    <!-- L1 -->
    <rect x="20" y="20" width="220" height="80" fill="#ffebee" stroke="#c62828" stroke-width="2" rx="5"/>
    <text x="130" y="45" font-size="14" font-weight="bold" text-anchor="middle" fill="#c62828">L⃗₁ (orbital puro)</text>
    <text x="130" y="70" font-size="12" text-anchor="middle" fill="#333">Σmᵢ(r⃗ₐ × v⃗ₐ)</text>
    <text x="130" y="88" font-size="12" text-anchor="middle" fill="#c62828">= r⃗_CM × p⃗_CM</text>
    
    <!-- L2 -->
    <rect x="260" y="20" width="220" height="80" fill="#e8f5e9" stroke="#2e7d32" stroke-width="2" rx="5"/>
    <text x="370" y="45" font-size="14" font-weight="bold" text-anchor="middle" fill="#2e7d32">L⃗₂ = 0 ✓</text>
    <text x="370" y="70" font-size="12" text-anchor="middle" fill="#333">Σmᵢ(r⃗ₐ × ω⃗ × r⃗'ᵢ)</text>
    <text x="370" y="88" font-size="11" text-anchor="middle" fill="#666">se anula por CM</text>
    
    <!-- L3 -->
    <rect x="20" y="120" width="220" height="80" fill="#e3f2fd" stroke="#1565c0" stroke-width="2" rx="5"/>
    <text x="130" y="145" font-size="14" font-weight="bold" text-anchor="middle" fill="#1565c0">L⃗₃ = 0 ✓</text>
    <text x="130" y="170" font-size="12" text-anchor="middle" fill="#333">Σmᵢ(r⃗'ᵢ × v⃗ₐ)</text>
    <text x="130" y="188" font-size="11" text-anchor="middle" fill="#666">se anula por CM</text>
    
    <!-- L4 -->
    <rect x="260" y="120" width="220" height="80" fill="#f3e5f5" stroke="#7b1fa2" stroke-width="2" rx="5"/>
    <text x="370" y="145" font-size="14" font-weight="bold" text-anchor="middle" fill="#7b1fa2">L⃗₄ (spin)</text>
    <text x="370" y="170" font-size="12" text-anchor="middle" fill="#333">Σmᵢ[r⃗'ᵢ × (ω⃗ × r⃗'ᵢ)]</text>
    <text x="370" y="188" font-size="12" text-anchor="middle" fill="#7b1fa2">= I_CM · ω⃗</text>
  </g>
  
  <!-- Resultado -->
  <g transform="translate(50, 310)">
    <rect x="0" y="0" width="500" height="35" fill="#fff9c4" stroke="#f57f17" stroke-width="2" rx="5"/>
    <text x="250" y="22" font-size="14" font-weight="bold" text-anchor="middle" fill="#333">
      L⃗ = L⃗₁ + L⃗₄ = r⃗_CM × p⃗_CM + I_CM · ω⃗
    </text>
  </g>
</svg>
